<svg width="44" height="60" viewBox="0 0 44 60" fill="none" xmlns="http://www.w3.org/2000/svg">
<path d="M14.4575 3.79094C16.4579 1.79055 19.171 0.666748 22 0.666748C24.829 0.666748 27.5421 1.79055 29.5425 3.79094C31.5429 5.79133 32.6667 8.50444 32.6667 11.3334V30.0001C32.6667 32.8291 31.5429 35.5422 29.5425 37.5426C27.5421 39.5429 24.829 40.6667 22 40.6667C19.171 40.6667 16.4579 39.5429 14.4575 37.5426C12.4571 35.5422 11.3333 32.8291 11.3333 30.0001V11.3334C11.3333 8.50444 12.4571 5.79133 14.4575 3.79094Z" fill="#F2A007"/>
<path d="M6 24.6667C6 23.194 4.80609 22.0001 3.33333 22.0001C1.86057 22.0001 0.666664 23.194 0.666664 24.6667V30.0001C0.666664 35.658 2.91428 41.0842 6.91505 45.085C10.2821 48.452 14.6587 50.5773 19.3333 51.1662V56.6667C19.3333 58.1395 20.5272 59.3334 22 59.3334C23.4728 59.3334 24.6667 58.1395 24.6667 56.6667V51.1662C29.3413 50.5773 33.7179 48.452 37.0849 45.085C41.0857 41.0842 43.3333 35.658 43.3333 30.0001V24.6667C43.3333 23.194 42.1394 22.0001 40.6667 22.0001C39.1939 22.0001 38 23.194 38 24.6667V30.0001C38 34.2435 36.3143 38.3132 33.3137 41.3138C30.3131 44.3144 26.2435 46.0001 22 46.0001C17.7565 46.0001 13.6869 44.3144 10.6863 41.3138C7.68571 38.3132 6 34.2435 6 30.0001V24.6667Z" fill="#F2A007"/>
</svg>
