<svg width="25" height="24" viewBox="0 0 25 24" fill="none" xmlns="http://www.w3.org/2000/svg">
<path d="M4.30004 22H20.3C20.8305 22 21.3392 21.7893 21.7143 21.4142C22.0893 21.0391 22.3 20.5304 22.3 20V4C22.3 3.46957 22.0893 2.96086 21.7143 2.58579C21.3392 2.21071 20.8305 2 20.3 2H8.30004C7.76961 2 7.2609 2.21071 6.88583 2.58579C6.51075 2.96086 6.30004 3.46957 6.30004 4V20C6.30004 20.5304 6.08933 21.0391 5.71425 21.4142C5.33918 21.7893 4.83047 22 4.30004 22ZM4.30004 22C3.76961 22 3.2609 21.7893 2.88583 21.4142C2.51075 21.0391 2.30004 20.5304 2.30004 20V11C2.30004 9.9 3.20004 9 4.30004 9H6.30004M18.3 14H10.3M15.3 18H10.3M10.3 6H18.3V10H10.3V6Z" stroke="#4D5257" stroke-width="2" stroke-linecap="round" stroke-linejoin="round"/>
</svg>
