<svg width="20" height="20" viewBox="0 0 20 20" fill="none" xmlns="http://www.w3.org/2000/svg">
<path d="M10 1.25C14.8325 1.25 18.75 5.16751 18.75 10C18.75 14.8325 14.8325 18.75 10 18.75C5.16751 18.75 1.25 14.8325 1.25 10C1.25 5.16751 5.16751 1.25 10 1.25Z" fill="#3CB371" stroke="white" stroke-width="1.5"/>
<path fill-rule="evenodd" clip-rule="evenodd" d="M14.7071 6.29289C15.0976 6.68342 15.0976 7.31658 14.7071 7.70711L9.37377 13.0404C8.98325 13.431 8.35008 13.431 7.95956 13.0404L5.29289 10.3738C4.90237 9.98325 4.90237 9.35008 5.29289 8.95956C5.68342 8.56904 6.31658 8.56904 6.70711 8.95956L8.66667 10.9191L13.2929 6.29289C13.6834 5.90237 14.3166 5.90237 14.7071 6.29289Z" fill="white"/>
</svg>
