<svg width="201" height="201" viewBox="0 0 201 201" fill="none" xmlns="http://www.w3.org/2000/svg">
<path d="M0.5 100.5C0.5 45.2715 45.2715 0.5 100.5 0.5C155.728 0.5 200.5 45.2715 200.5 100.5C200.5 155.728 155.728 200.5 100.5 200.5C45.2715 200.5 0.5 155.728 0.5 100.5Z" fill="#FEF3F3"/>
<path d="M100.448 47.3018C103.396 47.3018 106.291 48.0841 108.838 49.5684C111.382 51.0505 113.488 53.1802 114.942 55.7402C114.944 55.7438 114.946 55.7475 114.948 55.751L156.589 128.624C156.591 128.628 156.594 128.632 156.596 128.636C158.054 131.165 158.822 134.033 158.823 136.953C158.823 139.877 158.055 142.75 156.594 145.283C155.133 147.816 153.032 149.921 150.5 151.385C147.969 152.849 145.097 153.621 142.173 153.624H58.8568C55.9298 153.645 53.0483 152.894 50.5033 151.447C47.9488 149.995 45.8237 147.894 44.3431 145.355C42.8627 142.817 42.0792 139.933 42.0726 136.995C42.0661 134.062 42.834 131.179 44.2982 128.638C44.3008 128.633 44.3034 128.629 44.306 128.624L85.9476 55.751C85.9496 55.7475 85.9515 55.7438 85.9535 55.7402C87.4069 53.1802 89.5133 51.0505 92.057 49.5684C94.6042 48.0841 97.4995 47.3018 100.448 47.3018ZM100.5 120.292C97.0486 120.292 94.2503 123.09 94.2503 126.542C94.2505 129.994 97.0487 132.792 100.5 132.792H100.552C104.004 132.792 106.802 129.994 106.802 126.542C106.802 123.09 104.004 120.292 100.552 120.292H100.5ZM100.5 78.625C97.0486 78.625 94.2503 81.4232 94.2503 84.875V105.708C94.2503 109.16 97.0486 111.958 100.5 111.958C103.952 111.958 106.75 109.16 106.75 105.708V84.875C106.75 81.4233 103.952 78.6252 100.5 78.625Z" fill="#F21616"/>
</svg>
