<svg width="24" height="24" viewBox="0 0 24 24" fill="none" xmlns="http://www.w3.org/2000/svg">
<path fill-rule="evenodd" clip-rule="evenodd" d="M22.1435 10.6462C22.4003 10.7677 22.618 10.9599 22.77 11.2C22.922 11.44 23.0027 11.7183 23.0027 12.0025C23.0027 12.2866 22.922 12.5649 22.77 12.805C22.618 13.045 22.4009 13.237 22.144 13.3585L4.14687 21.8571C3.8779 21.9861 3.5765 22.0318 3.28129 21.9884C2.98394 21.9447 2.70663 21.8125 2.48539 21.6091C2.26414 21.4057 2.10919 21.1405 2.04068 20.8479C1.97268 20.5574 1.99294 20.2534 2.09877 19.9746L4.69769 13H14C14.5523 13 15 12.5523 15 12C15 11.4477 14.5523 11 14 11H4.69576L2.09797 4.03084C1.99182 3.75193 1.97137 3.44761 2.03935 3.15691C2.1079 2.86376 2.26319 2.59807 2.48496 2.39448C2.70674 2.19089 2.98471 2.05885 3.28263 2.01556C3.57785 1.97268 3.87908 2.01891 4.14776 2.14825L22.1435 10.6462Z" fill="white"/>
</svg>
