<svg width="20" height="20" viewBox="0 0 20 20" fill="none" xmlns="http://www.w3.org/2000/svg">
<path d="M10 1.25C14.8325 1.25 18.75 5.16751 18.75 10C18.75 14.8325 14.8325 18.75 10 18.75C5.16751 18.75 1.25 14.8325 1.25 10C1.25 5.16751 5.16751 1.25 10 1.25Z" fill="#F2A007" stroke="white" stroke-width="1.5"/>
<path fill-rule="evenodd" clip-rule="evenodd" d="M10 3.66699C10.5523 3.66699 11 4.11471 11 4.66699V9.28L14.3161 10.3849C14.8401 10.5595 15.1233 11.1258 14.9487 11.6498C14.7741 12.1737 14.2078 12.457 13.6839 12.2824L9.68388 10.9496C9.27548 10.8135 9 10.4313 9 10.0008V4.66699C9 4.11471 9.44772 3.66699 10 3.66699Z" fill="white"/>
</svg>
