<svg width="22" height="20" viewBox="0 0 22 20" fill="none" xmlns="http://www.w3.org/2000/svg">
<path d="M8.43934 1.14645C9.38429 0.201499 11 0.870756 11 2.20711V17.7929C11 19.1292 9.38429 19.7985 8.43934 18.8536L4.58579 15H1.5C0.671573 15 0 14.3284 0 13.5V6.5C0 5.67158 0.671573 5 1.5 5H4.58579L8.43934 1.14645Z" fill="#181E25"/>
<path d="M19.0712 2.92863C18.6806 2.53811 18.0475 2.53811 17.657 2.92864C17.2664 3.31917 17.2664 3.95233 17.657 4.34285C18.3998 5.08572 18.9891 5.96764 19.3912 6.93825C19.7932 7.90886 20.0002 8.94916 20.0002 9.99974C20.0002 11.0503 19.7932 12.0906 19.3912 13.0612C18.9891 14.0318 18.3998 14.9138 17.657 15.6566C17.2664 16.0472 17.2664 16.6803 17.657 17.0708C18.0475 17.4614 18.6806 17.4614 19.0712 17.0709C19.9998 16.1423 20.7364 15.0399 21.2389 13.8266C21.7415 12.6133 22.0002 11.313 22.0002 9.99974C22.0002 8.68651 21.7415 7.38614 21.2389 6.17288C20.7364 4.95962 19.9998 3.85722 19.0712 2.92863Z" fill="#181E25"/>
<path d="M15.8001 6.39976C15.4687 5.95793 14.8419 5.86839 14.4001 6.19976C13.9582 6.53113 13.8687 7.15793 14.2001 7.59976C14.7193 8.29214 15.0001 9.13428 15.0001 9.99976C15.0001 10.8652 14.7193 11.7074 14.2001 12.3998C13.8687 12.8416 13.9582 13.4684 14.4001 13.7998C14.8419 14.1311 15.4687 14.0416 15.8001 13.5998C16.579 12.5612 17.0001 11.298 17.0001 9.99976C17.0001 8.70153 16.579 7.43833 15.8001 6.39976Z" fill="#181E25"/>
</svg>
