<svg width="96" height="46" viewBox="0 0 96 46" fill="none" xmlns="http://www.w3.org/2000/svg">
<path d="M23.25 2.75C23.25 1.50736 22.2426 0.5 21 0.5C19.7574 0.5 18.75 1.50736 18.75 2.75V43.25C18.75 44.4926 19.7574 45.5 21 45.5C22.2426 45.5 23.25 44.4926 23.25 43.25V2.75Z" fill="white"/>
<path d="M41.25 7.25C41.25 6.00736 40.2426 5 39 5C37.7574 5 36.75 6.00736 36.75 7.25V36.5C36.75 37.7426 37.7574 38.75 39 38.75C40.2426 38.75 41.25 37.7426 41.25 36.5V7.25Z" fill="white"/>
<path d="M14.25 9.5C14.25 8.25736 13.2426 7.25 12 7.25C10.7574 7.25 9.75 8.25736 9.75 9.5V34.25C9.75 35.4926 10.7574 36.5 12 36.5C13.2426 36.5 14.25 35.4926 14.25 34.25V9.5Z" fill="white"/>
<path d="M32.25 14C32.25 12.7574 31.2426 11.75 30 11.75C28.7574 11.75 27.75 12.7574 27.75 14V29.75C27.75 30.9926 28.7574 32 30 32C31.2426 32 32.25 30.9926 32.25 29.75V14Z" fill="white"/>
<path d="M5.25 18.5C5.25 17.2574 4.24264 16.25 3 16.25C1.75736 16.25 0.75 17.2574 0.75 18.5V25.25C0.75 26.4926 1.75736 27.5 3 27.5C4.24264 27.5 5.25 26.4926 5.25 25.25V18.5Z" fill="white"/>
<path d="M50.25 16.25C50.25 15.0074 49.2426 14 48 14C46.7574 14 45.75 15.0074 45.75 16.25V27.5C45.75 28.7426 46.7574 29.75 48 29.75C49.2426 29.75 50.25 28.7426 50.25 27.5V16.25Z" fill="white"/>
<path d="M72.75 2.75C72.75 1.50736 73.7574 0.5 75 0.5C76.2426 0.5 77.25 1.50736 77.25 2.75V43.25C77.25 44.4926 76.2426 45.5 75 45.5C73.7574 45.5 72.75 44.4926 72.75 43.25V2.75Z" fill="white"/>
<path d="M54.75 7.25C54.75 6.00736 55.7574 5 57 5C58.2426 5 59.25 6.00736 59.25 7.25V36.5C59.25 37.7426 58.2426 38.75 57 38.75C55.7574 38.75 54.75 37.7426 54.75 36.5V7.25Z" fill="white"/>
<path d="M81.75 9.5C81.75 8.25736 82.7574 7.25 84 7.25C85.2426 7.25 86.25 8.25736 86.25 9.5V34.25C86.25 35.4926 85.2426 36.5 84 36.5C82.7574 36.5 81.75 35.4926 81.75 34.25V9.5Z" fill="white"/>
<path d="M63.75 14C63.75 12.7574 64.7574 11.75 66 11.75C67.2426 11.75 68.25 12.7574 68.25 14V29.75C68.25 30.9926 67.2426 32 66 32C64.7574 32 63.75 30.9926 63.75 29.75V14Z" fill="white"/>
<path d="M90.75 18.5C90.75 17.2574 91.7574 16.25 93 16.25C94.2426 16.25 95.25 17.2574 95.25 18.5V25.25C95.25 26.4926 94.2426 27.5 93 27.5C91.7574 27.5 90.75 26.4926 90.75 25.25V18.5Z" fill="white"/>
</svg>
