<svg width="50" height="50" viewBox="0 0 50 50" fill="none" xmlns="http://www.w3.org/2000/svg">
<path d="M45.25 25C45.25 13.8162 36.1838 4.75 25 4.75C20.2187 4.75 15.8256 6.40851 12.3613 9.17969L40.8181 37.6365C43.5892 34.1723 45.25 29.7812 45.25 25ZM4.75 25C4.75 36.1838 13.8162 45.25 25 45.25C29.7812 45.25 34.1723 43.5892 37.6365 40.8181L9.17969 12.3613C6.40851 15.8256 4.75 20.2187 4.75 25ZM49.75 25C49.75 31.5874 47.1701 37.5678 42.9736 42.0024C42.8695 42.2049 42.7346 42.3953 42.5649 42.5649C42.3953 42.7346 42.2049 42.8695 42.0024 42.9736C37.5678 47.1701 31.5874 49.75 25 49.75C11.331 49.75 0.25 38.669 0.25 25C0.25 18.4126 2.82763 12.43 7.02417 7.99536C7.12825 7.79323 7.26568 7.60444 7.43506 7.43506C7.60444 7.26568 7.79323 7.12825 7.99536 7.02417C12.43 2.82763 18.4126 0.25 25 0.25C38.669 0.25 49.75 11.331 49.75 25Z" fill="#9EA1A3"/>
</svg>
