<svg xmlns="http://www.w3.org/2000/svg" width="188" height="48" viewBox="0 0 188 48" fill="none">
<g clip-path="url(#clip0_6088_1315)">
<path fill-rule="evenodd" clip-rule="evenodd" d="M0 1C0 0.447715 0.447715 0 1 0H5C5.55228 0 6 0.447715 6 1V4H45C46.6569 4 48 5.34315 48 7V47C48 47.7434 47.2177 48.2269 46.5528 47.8944L40 44H3C1.34315 44 0 42.6569 0 41V1ZM12 12.5C12 12.2239 12.2239 12 12.5 12H35.5C35.7761 12 36 12.2239 36 12.5V19.5C36 19.7761 35.7761 20 35.5 20H28V35.5C28 35.7761 27.7761 36 27.5 36H20.5C20.2239 36 20 35.7761 20 35.5V20H12.5C12.2239 20 12 19.7761 12 19.5V12.5Z" fill="#F2A007"/>
</g>
<path fill-rule="evenodd" clip-rule="evenodd" d="M92.9496 35.8555H97.8776V11.7275H92.9496V35.8555ZM106.823 35.8555H101.895V11.7275H106.823V25.6155L112.007 19.8555H118.183L112.167 26.1915L117.991 35.8555H112.295L108.711 29.8715L106.823 31.8555V35.8555ZM120.527 35.8555H125.455V11.7275H120.527V35.8555ZM129.472 35.8558V19.8558H134.4V35.8558H129.472ZM131.904 17.3598C131.115 17.3598 130.443 17.0931 129.888 16.5598C129.355 16.0051 129.088 15.3331 129.088 14.5438C129.088 13.7544 129.355 13.0931 129.888 12.5598C130.443 12.0264 131.115 11.7598 131.904 11.7598C132.672 11.7598 133.323 12.0264 133.856 12.5598C134.411 13.0931 134.688 13.7544 134.688 14.5438C134.688 15.3331 134.411 16.0051 133.856 16.5598C133.323 17.0931 132.672 17.3598 131.904 17.3598ZM138.417 35.856H143.345V27.088C143.345 26.0853 143.633 25.296 144.209 24.72C144.785 24.1227 145.564 23.824 146.545 23.824C147.399 23.824 148.081 24.1333 148.593 24.752C149.105 25.3493 149.361 26.1493 149.361 27.152V35.856H154.289V25.968C154.289 23.8773 153.756 22.256 152.689 21.104C151.644 19.9307 150.172 19.344 148.273 19.344C147.228 19.344 146.268 19.536 145.393 19.92C144.54 20.304 143.868 20.8373 143.377 21.52L143.057 19.856H138.417V35.856ZM165.568 36.272C163.968 36.272 162.538 35.9093 161.28 35.184C160.042 34.4587 159.061 33.4667 158.336 32.208C157.632 30.928 157.28 29.4667 157.28 27.824C157.28 26.16 157.621 24.6987 158.304 23.44C159.008 22.16 159.978 21.1573 161.216 20.432C162.453 19.7067 163.872 19.344 165.472 19.344C167.157 19.344 168.608 19.696 169.824 20.4C171.04 21.0827 171.978 22.064 172.64 23.344C173.301 24.6027 173.632 26.1067 173.632 27.856V29.104L162.004 29.1581C162.132 30.028 162.402 30.714 162.816 31.216C163.434 31.92 164.384 32.272 165.664 32.272C166.602 32.272 167.381 32.112 168 31.792C168.618 31.472 169.013 31.024 169.184 30.448H173.696C173.418 32.2187 172.544 33.6373 171.072 34.704C169.6 35.7493 167.765 36.272 165.568 36.272ZM162.304 25.328C162.21 25.5691 162.134 25.8358 162.075 26.128H168.736C168.736 25.2747 168.448 24.6027 167.872 24.112C167.296 23.6 166.506 23.344 165.504 23.344C164.672 23.344 163.989 23.504 163.456 23.824C162.944 24.144 162.56 24.6453 162.304 25.328ZM187.878 19.8558V24.4958H186.31C184.902 24.4958 183.792 24.8372 182.982 25.5198C182.192 26.2025 181.798 27.3332 181.798 28.9118V35.8558H176.87V19.8878H181.51L181.774 22.2471C182.034 21.6476 182.404 21.1278 182.886 20.6878C183.654 19.9838 184.688 19.6318 185.99 19.6318C186.288 19.6318 186.587 19.6532 186.886 19.6958C187.206 19.7172 187.536 19.7705 187.878 19.8558ZM79.3993 36.272C77.714 36.272 76.37 35.8133 75.3673 34.896C74.386 33.9573 73.8953 32.7093 73.8953 31.152C73.8953 29.68 74.3967 28.5067 75.3993 27.632C76.4233 26.7573 77.8953 26.2453 79.8153 26.096L84.2953 25.744V25.488C84.2953 24.9547 84.1887 24.5173 83.9753 24.176C83.762 23.8133 83.4527 23.5467 83.0473 23.376C82.6633 23.184 82.1727 23.088 81.5753 23.088C80.53 23.088 79.73 23.28 79.1753 23.664C78.642 24.048 78.3753 24.6027 78.3753 25.328H74.2793C74.2793 24.112 74.5887 23.056 75.2073 22.16C75.826 21.264 76.7007 20.5707 77.8313 20.08C78.9833 19.5893 80.3167 19.344 81.8313 19.344C83.3887 19.344 84.7007 19.6213 85.7673 20.176C86.8553 20.7307 87.6767 21.5413 88.2313 22.608C88.8073 23.6747 89.0953 24.976 89.0953 26.512V35.856H84.7433L84.4233 33.744C84.1673 34.4693 83.5593 35.0773 82.5993 35.568C81.6607 36.0373 80.594 36.272 79.3993 36.272ZM81.1273 32.624C82.066 32.624 82.834 32.4 83.4313 31.952C84.0287 31.4827 84.3273 30.7893 84.3273 29.872V29.008L81.8313 29.232C80.7647 29.3173 80.0073 29.4987 79.5593 29.776C79.1327 30.032 78.9193 30.416 78.9193 30.928C78.9193 31.504 79.1007 31.9307 79.4633 32.208C79.826 32.4853 80.3807 32.624 81.1273 32.624ZM62.7201 16.9758H56.0001V12.1758H74.6241V16.9758H67.9041V35.8558H62.7201V16.9758Z" fill="#FFFFFF"/>
<defs>
<clipPath id="clip0_6088_1315">
<rect width="48" height="48" fill="white"/>
</clipPath>
</defs>
</svg>